<mxfile host="app.diagrams.net" modified="2023-09-17T08:35:54.719Z" agent="Mozilla/5.0 (Windows NT 10.0; Win64; x64) AppleWebKit/537.36 (KHTML, like Gecko) Chrome/116.0.0.0 Safari/537.36" version="21.7.5" etag="7RoWUAF1SWMDeB8NlMgi" type="github">
  <diagram name="Page-1" id="dEBqrfbwsA_IWo3qiVf0">
    <mxGraphModel>
      <root>
        <mxCell id="0" />
        <mxCell id="1" parent="0" />
      </root>
    </mxGraphModel>
  </diagram>
</mxfile>
